<svg width="32" height="32" viewBox="0 0 32 32" fill="none" xmlns="http://www.w3.org/2000/svg">
<path d="M15.3174 29.0054C15.7094 29.2147 16.2014 29.2134 16.5934 29.004C27.276 23.2654 28.0347 12.0534 28.0254 8.86535C28.0244 8.60913 27.9486 8.35876 27.8075 8.14491C27.6663 7.93106 27.4659 7.76301 27.2307 7.66135L16.4974 2.90669C16.3266 2.83139 16.1419 2.79262 15.9552 2.79285C15.7686 2.79308 15.584 2.83231 15.4134 2.90802L4.7547 7.66269C4.52297 7.7644 4.32535 7.93059 4.18541 8.14146C4.04546 8.35232 3.96908 8.59897 3.96537 8.85202C3.92004 12.024 4.5587 23.26 15.3174 29.0054ZM11.5654 13.724L14.6227 16.7814L20.3467 11.0574L22.232 12.9427L14.6227 20.552L9.68004 15.6094L11.5654 13.724V13.724Z" fill="#83BF81"/>
</svg>
