<svg width="20" height="20" viewBox="0 0 20 20" fill="none" xmlns="http://www.w3.org/2000/svg">
<path d="M17.5124 10.3657L15.4476 6.95239C15.3147 6.72208 15.1238 6.53058 14.8939 6.39692C14.664 6.26326 14.4031 6.19209 14.1372 6.19048H12.2857V4.66667C12.2857 4.4646 12.2055 4.27081 12.0626 4.12793C11.9197 3.98504 11.7259 3.90477 11.5238 3.90477H3.90479C3.50065 3.90477 3.11306 4.06531 2.82729 4.35108C2.54153 4.63685 2.38098 5.02444 2.38098 5.42858V13.0476C2.38126 13.3148 2.45179 13.5773 2.58552 13.8086C2.71925 14.04 2.91147 14.2321 3.14289 14.3657C3.11561 15.073 3.3704 15.7621 3.8512 16.2815C4.33201 16.8009 4.99945 17.108 5.7067 17.1352C6.41394 17.1625 7.10305 16.9077 7.62244 16.4269C8.14183 15.9461 8.44894 15.2787 8.47622 14.5714H10.8381C10.9224 15.2089 11.2354 15.7941 11.719 16.2179C12.2025 16.6418 12.8237 16.8755 13.4667 16.8755C14.1097 16.8755 14.7308 16.6418 15.2144 16.2179C15.698 15.7941 16.011 15.2089 16.0953 14.5714C16.4994 14.5714 16.887 14.4109 17.1728 14.1251C17.4585 13.8394 17.6191 13.4518 17.6191 13.0476V10.7619C17.6179 10.6229 17.5812 10.4865 17.5124 10.3657V10.3657ZM5.80955 15.3333C5.58352 15.3333 5.36256 15.2663 5.17462 15.1407C4.98667 15.0152 4.84019 14.8367 4.75369 14.6278C4.66719 14.419 4.64456 14.1892 4.68866 13.9675C4.73275 13.7458 4.8416 13.5422 5.00143 13.3824C5.16126 13.2225 5.3649 13.1137 5.58659 13.0696C5.80829 13.0255 6.03808 13.0481 6.24691 13.1346C6.45574 13.2211 6.63423 13.3676 6.7598 13.5555C6.88538 13.7435 6.95241 13.9644 6.95241 14.1905C6.95241 14.4936 6.832 14.7843 6.61768 14.9986C6.40335 15.2129 6.11266 15.3333 5.80955 15.3333ZM10 9.2381H8.47622V10.7619H6.95241V9.2381H5.4286V7.71429H6.95241V6.19048H8.47622V7.71429H10V9.2381ZM13.4286 15.3333C13.2026 15.3333 12.9816 15.2663 12.7937 15.1407C12.6057 15.0152 12.4592 14.8367 12.3727 14.6278C12.2862 14.419 12.2636 14.1892 12.3077 13.9675C12.3518 13.7458 12.4606 13.5422 12.6205 13.3824C12.7803 13.2225 12.9839 13.1137 13.2056 13.0696C13.4273 13.0255 13.6571 13.0481 13.866 13.1346C14.0748 13.2211 14.2533 13.3676 14.3789 13.5555C14.5044 13.7435 14.5715 13.9644 14.5715 14.1905C14.5715 14.4936 14.4511 14.7843 14.2367 14.9986C14.0224 15.2129 13.7317 15.3333 13.4286 15.3333ZM12.2857 10V7.71429H14.1372L15.5086 10H12.2857Z" fill="#ED7272"/>
</svg>
