<svg width="24" height="24" viewBox="0 0 24 24" fill="none" xmlns="http://www.w3.org/2000/svg">
<path d="M11.5123 21.2896C11.7923 21.4391 12.1438 21.4382 12.4238 21.2887C20.0542 17.1896 20.5961 9.18105 20.5895 6.90391C20.5888 6.72089 20.5347 6.54206 20.4339 6.38931C20.333 6.23656 20.1899 6.11652 20.0219 6.04391L12.3552 2.64772C12.2332 2.59394 12.1013 2.56624 11.968 2.56641C11.8346 2.56657 11.7028 2.59459 11.5809 2.64867L3.96758 6.04486C3.80205 6.11752 3.6609 6.23622 3.56094 6.38684C3.46097 6.53746 3.40642 6.71364 3.40377 6.89439C3.37139 9.1601 3.82758 17.1858 11.5123 21.2896ZM8.83234 10.3744L11.0161 12.5582L15.1047 8.46963L16.4514 9.81629L11.0161 15.2515L7.48567 11.7211L8.83234 10.3744V10.3744Z" fill="#83BF81"/>
</svg>
