<svg width="24" height="24" viewBox="0 0 24 24" fill="none" xmlns="http://www.w3.org/2000/svg">
<path d="M21.3905 12.4571L18.8095 8.19047C18.6433 7.90259 18.4047 7.66322 18.1173 7.49614C17.8299 7.32906 17.5038 7.2401 17.1714 7.23809H14.8571V5.33333C14.8571 5.08074 14.7568 4.8385 14.5782 4.6599C14.3996 4.48129 14.1574 4.38095 13.9048 4.38095H4.38096C3.87578 4.38095 3.3913 4.58163 3.03409 4.93884C2.67688 5.29605 2.4762 5.78054 2.4762 6.28571V15.8095C2.47654 16.1435 2.56471 16.4716 2.73187 16.7608C2.89903 17.05 3.1393 17.2901 3.42858 17.4571C3.39448 18.3412 3.71296 19.2026 4.31397 19.8518C4.91498 20.5011 5.74928 20.8849 6.63334 20.919C7.51739 20.9531 8.37879 20.6347 9.02802 20.0336C9.67725 19.4326 10.0611 18.5983 10.0952 17.7143H13.0476C13.1529 18.5111 13.5443 19.2426 14.1487 19.7724C14.7532 20.3022 15.5296 20.5943 16.3333 20.5943C17.1371 20.5943 17.9135 20.3022 18.518 19.7724C19.1224 19.2426 19.5137 18.5111 19.6191 17.7143C20.1242 17.7143 20.6087 17.5136 20.9659 17.1564C21.3231 16.7992 21.5238 16.3147 21.5238 15.8095V12.9524C21.5223 12.7786 21.4764 12.6082 21.3905 12.4571V12.4571ZM6.76191 18.6667C6.47937 18.6667 6.20317 18.5829 5.96824 18.4259C5.73331 18.2689 5.55021 18.0458 5.44208 17.7848C5.33396 17.5237 5.30567 17.2365 5.36079 16.9594C5.41591 16.6823 5.55197 16.4277 5.75176 16.2279C5.95155 16.0282 6.20609 15.8921 6.48321 15.837C6.76033 15.7819 7.04756 15.8101 7.3086 15.9183C7.56964 16.0264 7.79275 16.2095 7.94972 16.4444C8.1067 16.6793 8.19048 16.9555 8.19048 17.2381C8.19048 17.617 8.03997 17.9803 7.77206 18.2482C7.50415 18.5162 7.14079 18.6667 6.76191 18.6667ZM12 11.0476H10.0952V12.9524H8.19048V11.0476H6.28572V9.14286H8.19048V7.23809H10.0952V9.14286H12V11.0476ZM16.2857 18.6667C16.0032 18.6667 15.727 18.5829 15.492 18.4259C15.2571 18.2689 15.074 18.0458 14.9659 17.7848C14.8578 17.5237 14.8295 17.2365 14.8846 16.9594C14.9397 16.6823 15.0758 16.4277 15.2756 16.2279C15.4754 16.0282 15.7299 15.8921 16.007 15.837C16.2841 15.7819 16.5714 15.8101 16.8324 15.9183C17.0934 16.0264 17.3166 16.2095 17.4735 16.4444C17.6305 16.6793 17.7143 16.9555 17.7143 17.2381C17.7143 17.617 17.5638 17.9803 17.2959 18.2482C17.028 18.5162 16.6646 18.6667 16.2857 18.6667ZM14.8571 12V9.14286H17.1714L18.8857 12H14.8571Z" fill="#ED7272"/>
</svg>
