<svg width="32" height="32" viewBox="0 0 32 32" fill="none" xmlns="http://www.w3.org/2000/svg">
<path d="M16 7.48001L12.32 11.1333L16.7333 15.5467L15.32 16.96L10.9067 12.5467L8.54666 14.9067L12.96 19.32L11.5467 20.7333L7.13333 16.32L4.46666 18.9867C4.04292 19.3971 3.76724 19.9365 3.6828 20.5204C3.59835 21.1043 3.70991 21.6996 3.99999 22.2133L5.33333 24.7333L2.33333 27.7867L4.21333 29.6667L7.26666 26.6667L9.78666 28C10.1931 28.2304 10.6529 28.3499 11.12 28.3467C11.4719 28.347 11.8203 28.2776 12.1453 28.1426C12.4702 28.0076 12.7653 27.8096 13.0133 27.56L24.52 16L16 7.48001Z" fill="#BC679A"/>
<path d="M26.4 12.2667L24.0133 9.86668L25.9067 7.98668L27.7867 9.86668L29.6667 7.98668L24.0133 2.33334L22.1333 4.21334L24.0133 6.10668L22.1333 7.98668L19.7333 5.60001L17.4133 3.26668L15.5333 5.16001L16.9067 6.53334V6.54668L25.4533 15.0933H25.4667L26.84 16.4667L28.7333 14.5867L26.4133 12.2667H26.4V12.2667Z" fill="#BC679A"/>
</svg>
