<svg width="20" height="20" viewBox="0 0 20 20" fill="none" xmlns="http://www.w3.org/2000/svg">
<path d="M10.0001 5.13142L7.89722 7.21904L10.4191 9.74095L9.61151 10.5486L7.0896 8.02666L5.74103 9.37523L8.26293 11.8971L7.45531 12.7048L4.93341 10.1829L3.4096 11.7067C3.16746 11.9412 3.00993 12.2494 2.96168 12.5831C2.91342 12.9167 2.97717 13.2569 3.14293 13.5505L3.90484 14.9905L2.19055 16.7352L3.26484 17.8095L5.0096 16.0952L6.4496 16.8571C6.68183 16.9888 6.94457 17.0571 7.21151 17.0552C7.41258 17.0554 7.6117 17.0158 7.79739 16.9386C7.98307 16.8615 8.15165 16.7483 8.29341 16.6057L14.8686 10L10.0001 5.13142Z" fill="#BC679A"/>
<path d="M15.9429 7.86666L14.5791 6.49523L15.661 5.42095L16.7353 6.49523L17.8096 5.42095L14.5791 2.19047L13.5048 3.26476L14.5791 4.34666L13.5048 5.42095L12.1334 4.05714L10.8077 2.72381L9.7334 3.80571L10.5182 4.59047V4.59809L15.402 9.4819H15.4096L16.1944 10.2667L17.2763 9.19238L15.9505 7.86666H15.9429V7.86666Z" fill="#BC679A"/>
</svg>
