<svg width="24" height="24" viewBox="0 0 24 24" fill="none" xmlns="http://www.w3.org/2000/svg">
<path d="M11.9999 5.91425L9.37137 8.52377L12.5238 11.6762L11.5142 12.6857L8.36185 9.53329L6.67613 11.219L9.82851 14.3714L8.81899 15.3809L5.66661 12.2285L3.76185 14.1333C3.45917 14.4265 3.26226 14.8118 3.20194 15.2288C3.14163 15.6459 3.22131 16.0711 3.42851 16.4381L4.38089 18.2381L2.23804 20.419L3.58089 21.7619L5.76185 19.619L7.56185 20.5714C7.85214 20.7359 8.18056 20.8213 8.51423 20.819C8.76557 20.8192 9.01447 20.7697 9.24658 20.6732C9.47869 20.5768 9.68941 20.4354 9.86661 20.2571L18.0857 12L11.9999 5.91425Z" fill="#BC679A"/>
<path d="M19.4285 9.33334L17.7238 7.61905L19.0761 6.27619L20.419 7.61905L21.7619 6.27619L17.7238 2.2381L16.3809 3.58096L17.7238 4.93334L16.3809 6.27619L14.6666 4.57143L13.0095 2.90476L11.6666 4.25715L12.6476 5.2381V5.24762L18.7523 11.3524H18.7619L19.7428 12.3333L21.0952 10.9905L19.4381 9.33334H19.4285V9.33334Z" fill="#BC679A"/>
</svg>
