<svg width="32" height="32" viewBox="0 0 32 32" fill="none" xmlns="http://www.w3.org/2000/svg">
<path d="M29.1467 16.64L25.5334 10.6666C25.3007 10.2636 24.9666 9.92849 24.5642 9.69458C24.1619 9.46067 23.7054 9.33612 23.24 9.33331H20V6.66665C20 6.31302 19.8595 5.97389 19.6095 5.72384C19.3594 5.47379 19.0203 5.33331 18.6667 5.33331H5.33335C4.62611 5.33331 3.94783 5.61426 3.44774 6.11436C2.94764 6.61446 2.66669 7.29274 2.66669 7.99998V21.3333C2.66717 21.8009 2.79061 22.2602 3.02464 22.6651C3.25866 23.07 3.59504 23.4062 4.00002 23.64C3.95228 24.8777 4.39816 26.0836 5.23958 26.9925C6.08099 27.9015 7.24901 28.4389 8.48669 28.4866C9.72436 28.5344 10.9303 28.0885 11.8392 27.2471C12.7482 26.4057 13.2856 25.2377 13.3334 24H17.4667C17.6141 25.1156 18.162 26.1396 19.0082 26.8813C19.8544 27.6231 20.9414 28.032 22.0667 28.032C23.192 28.032 24.2789 27.6231 25.1252 26.8813C25.9714 26.1396 26.5192 25.1156 26.6667 24C27.3739 24 28.0522 23.719 28.5523 23.2189C29.0524 22.7188 29.3334 22.0406 29.3334 21.3333V17.3333C29.3313 17.0901 29.267 16.8514 29.1467 16.64V16.64ZM8.66669 25.3333C8.27112 25.3333 7.88444 25.216 7.55555 24.9963C7.22665 24.7765 6.9703 24.4641 6.81893 24.0987C6.66755 23.7332 6.62795 23.3311 6.70512 22.9431C6.78229 22.5552 6.97277 22.1988 7.25247 21.9191C7.53218 21.6394 7.88854 21.4489 8.27651 21.3717C8.66447 21.2946 9.0666 21.3342 9.43205 21.4856C9.79751 21.6369 10.1099 21.8933 10.3296 22.2222C10.5494 22.5511 10.6667 22.9378 10.6667 23.3333C10.6667 23.8637 10.456 24.3725 10.0809 24.7475C9.70583 25.1226 9.19712 25.3333 8.66669 25.3333ZM16 14.6666H13.3334V17.3333H10.6667V14.6666H8.00002V12H10.6667V9.33331H13.3334V12H16V14.6666ZM22 25.3333C21.6045 25.3333 21.2178 25.216 20.8889 24.9963C20.56 24.7765 20.3036 24.4641 20.1523 24.0987C20.0009 23.7332 19.9613 23.3311 20.0385 22.9431C20.1156 22.5552 20.3061 22.1988 20.5858 21.9191C20.8655 21.6394 21.2219 21.4489 21.6098 21.3717C21.9978 21.2946 22.3999 21.3342 22.7654 21.4856C23.1308 21.6369 23.4432 21.8933 23.663 22.2222C23.8827 22.5511 24 22.9378 24 23.3333C24 23.8637 23.7893 24.3725 23.4142 24.7475C23.0392 25.1226 22.5305 25.3333 22 25.3333ZM20 16V12H23.24L25.64 16H20Z" fill="#ED7272"/>
</svg>
