<svg width="32" height="32" viewBox="0 0 32 32" fill="none" xmlns="http://www.w3.org/2000/svg">
<path d="M15.3173 29.0054C15.7093 29.2147 16.2013 29.2134 16.5933 29.004C27.276 23.2654 28.0346 12.0534 28.0253 8.86535C28.0243 8.60913 27.9486 8.35876 27.8074 8.14491C27.6663 7.93106 27.4658 7.76301 27.2306 7.66135L16.4973 2.90669C16.3265 2.83139 16.1418 2.79262 15.9552 2.79285C15.7685 2.79308 15.5839 2.83231 15.4133 2.90802L4.75464 7.66269C4.52291 7.7644 4.32529 7.93059 4.18535 8.14146C4.0454 8.35232 3.96902 8.59897 3.96531 8.85202C3.91998 12.024 4.55864 23.26 15.3173 29.0054ZM11.5653 13.724L14.6226 16.7814L20.3466 11.0574L22.232 12.9427L14.6226 20.552L9.67998 15.6094L11.5653 13.724Z" fill="#83BF81"/>
</svg>
