<svg width="32" height="32" viewBox="0 0 32 32" fill="none" xmlns="http://www.w3.org/2000/svg">
<path d="M14.5778 13.6889H17.4222V18.3111H14.5778V13.6889Z" fill="#ED7272"/>
<path d="M18.6667 18.6667C18.6667 18.9024 18.573 19.1285 18.4063 19.2952C18.2396 19.4619 18.0135 19.5556 17.7778 19.5556H14.2222C13.9865 19.5556 13.7604 19.4619 13.5937 19.2952C13.427 19.1285 13.3333 18.9024 13.3333 18.6667V16.8889H1.77777V24.8889C1.77777 25.3604 1.96507 25.8126 2.29847 26.146C2.63187 26.4794 3.08405 26.6667 3.55555 26.6667H28.4444C28.9159 26.6667 29.3681 26.4794 29.7015 26.146C30.0349 25.8126 30.2222 25.3604 30.2222 24.8889V16.8889H18.6667V18.6667Z" fill="#ED7272"/>
<path d="M29.9645 11.0044L26.3289 7.36888C26.1633 7.20466 25.9399 7.11208 25.7067 7.1111H21.2622V5.37776C21.2743 4.9107 21.102 4.45767 20.7826 4.11666C20.4632 3.77565 20.0224 3.57408 19.5556 3.55554H12.3022C12.0741 3.56452 11.8501 3.61918 11.6434 3.71629C11.4368 3.8134 11.2517 3.95099 11.0992 4.1209C10.9467 4.29081 10.8299 4.4896 10.7556 4.70549C10.6813 4.92138 10.651 5.14998 10.6667 5.37776V7.1111H6.29334C6.17636 7.11042 6.06039 7.13284 5.95209 7.17708C5.84379 7.22131 5.74529 7.28649 5.66223 7.36888L2.03556 11.0044C1.95318 11.0875 1.888 11.186 1.84377 11.2943C1.79953 11.4026 1.77711 11.5186 1.77779 11.6355V15.1111H13.3333V13.3333C13.3333 13.0976 13.427 12.8715 13.5937 12.7048C13.7604 12.5381 13.9865 12.4444 14.2222 12.4444H17.7778C18.0135 12.4444 18.2396 12.5381 18.4063 12.7048C18.573 12.8715 18.6667 13.0976 18.6667 13.3333V15.1111H30.2222V11.6267C30.2212 11.3935 30.1287 11.17 29.9645 11.0044V11.0044ZM19.5556 7.1111H12.4445V5.33332H19.5556V7.1111Z" fill="#ED7272"/>
</svg>
