<svg width="24" height="24" viewBox="0 0 24 24" fill="none" xmlns="http://www.w3.org/2000/svg">
<path d="M10.9841 10.3492H13.0159V13.6508H10.9841V10.3492Z" fill="#ED7272"/>
<path d="M13.9048 13.9048C13.9048 14.0732 13.8379 14.2346 13.7188 14.3537C13.5998 14.4728 13.4383 14.5397 13.2699 14.5397H10.7302C10.5618 14.5397 10.4003 14.4728 10.2812 14.3537C10.1622 14.2346 10.0953 14.0732 10.0953 13.9048V12.6349H1.84131V18.3492C1.84131 18.686 1.9751 19.009 2.21324 19.2471C2.45138 19.4853 2.77437 19.619 3.11115 19.619H20.8889C21.2257 19.619 21.5487 19.4853 21.7868 19.2471C22.025 19.009 22.1588 18.686 22.1588 18.3492V12.6349H13.9048V13.9048Z" fill="#ED7272"/>
<path d="M21.9745 8.43175L19.3777 5.83492C19.2594 5.71763 19.0998 5.6515 18.9333 5.6508H15.7587V4.4127C15.7673 4.07908 15.6442 3.75549 15.4161 3.51191C15.1879 3.26833 14.8731 3.12435 14.5396 3.11111H9.35866C9.1957 3.11753 9.03569 3.15657 8.88809 3.22594C8.74049 3.2953 8.60831 3.39358 8.49938 3.51494C8.39045 3.63631 8.30697 3.7783 8.2539 3.93251C8.20083 4.08671 8.17924 4.25 8.1904 4.4127V5.6508H5.06659C4.98303 5.65031 4.9002 5.66633 4.82284 5.69793C4.74549 5.72952 4.67513 5.77608 4.6158 5.83492L2.02532 8.43175C1.96648 8.49108 1.91992 8.56144 1.88833 8.63879C1.85673 8.71615 1.84071 8.79898 1.8412 8.88254V11.3651H10.0952V10.0952C10.0952 9.92685 10.1621 9.76536 10.2811 9.64629C10.4002 9.52721 10.5617 9.46032 10.7301 9.46032H13.2698C13.4382 9.46032 13.5997 9.52721 13.7187 9.64629C13.8378 9.76536 13.9047 9.92685 13.9047 10.0952V11.3651H22.1587V8.87619C22.158 8.70963 22.0918 8.55001 21.9745 8.43175V8.43175ZM14.5396 5.6508H9.46025V4.38096H14.5396V5.6508Z" fill="#ED7272"/>
</svg>
