<svg width="20" height="20" viewBox="0 0 20 20" fill="none" xmlns="http://www.w3.org/2000/svg">
<path d="M9.18738 8.67938H10.8128V11.3207H9.18738V8.67938Z" fill="#ED7272"/>
<path d="M11.5238 11.5238C11.5238 11.6585 11.4703 11.7877 11.3751 11.883C11.2798 11.9782 11.1506 12.0317 11.0159 12.0317H8.98416C8.84945 12.0317 8.72025 11.9782 8.62499 11.883C8.52974 11.7877 8.47622 11.6585 8.47622 11.5238V10.5079H1.87305V15.0794C1.87305 15.3488 1.98008 15.6072 2.17059 15.7977C2.3611 15.9882 2.61949 16.0952 2.88892 16.0952H17.1111C17.3806 16.0952 17.639 15.9882 17.8295 15.7977C18.02 15.6072 18.127 15.3488 18.127 15.0794V10.5079H11.5238V11.5238Z" fill="#ED7272"/>
<path d="M17.9797 7.14539L15.9023 5.06793C15.8077 4.97409 15.68 4.92119 15.5467 4.92063H13.007V3.93016C13.0139 3.66326 12.9155 3.40439 12.7329 3.20952C12.5504 3.01466 12.2986 2.89948 12.0318 2.88889H7.88702C7.75666 2.89402 7.62865 2.92525 7.51057 2.98074C7.39249 3.03623 7.28675 3.11486 7.1996 3.21195C7.11245 3.30904 7.04568 3.42263 7.00322 3.546C6.96076 3.66936 6.94349 3.79999 6.95242 3.93016V4.92063H4.45337C4.38653 4.92025 4.32026 4.93306 4.25837 4.95834C4.19649 4.98361 4.1402 5.02086 4.09274 5.06793L2.02036 7.14539C1.97328 7.19286 1.93604 7.24914 1.91076 7.31103C1.88548 7.37291 1.87267 7.43918 1.87306 7.50603V9.49206H8.47623V8.47619C8.47623 8.34147 8.52975 8.21228 8.625 8.11702C8.72026 8.02177 8.84945 7.96825 8.98417 7.96825H11.0159C11.1506 7.96825 11.2798 8.02177 11.3751 8.11702C11.4703 8.21228 11.5238 8.34147 11.5238 8.47619V9.49206H18.127V7.50095C18.1265 7.3677 18.0736 7.24 17.9797 7.14539V7.14539ZM12.0318 4.92063H7.96829V3.90476H12.0318V4.92063Z" fill="#ED7272"/>
</svg>
