<svg width="24" height="24" viewBox="0 0 24 24" fill="none" xmlns="http://www.w3.org/2000/svg">
<path d="M7.71427 14.8571H8.24998V15.5714C8.24998 15.9661 8.56963 16.2857 8.96427 16.2857H10.75C11.1446 16.2857 11.4643 15.9661 11.4643 15.5714V14.8571H12C12.7888 14.8571 13.4286 14.2174 13.4286 13.4286V3.42855C13.4286 2.63971 12.7888 1.99998 12 1.99998V1.2857C12 0.891054 11.6803 0.571411 11.2857 0.571411H8.42855C8.03391 0.571411 7.71427 0.891054 7.71427 1.2857V1.99998C6.92543 1.99998 6.2857 2.63971 6.2857 3.42855V13.4286C6.2857 14.2174 6.92543 14.8571 7.71427 14.8571ZM21.2857 20.5714H21.2281C22.5911 19.0531 23.4286 17.0536 23.4286 14.8571C23.4286 10.1303 19.5839 6.2857 14.8571 6.2857V9.14284C18.008 9.14284 20.5714 11.7062 20.5714 14.8571C20.5714 18.008 18.008 20.5714 14.8571 20.5714H2.71427C1.53079 20.5714 0.571411 21.5308 0.571411 22.7143C0.571411 23.1089 0.891054 23.4286 1.2857 23.4286H22.7143C23.1089 23.4286 23.4286 23.1089 23.4286 22.7143C23.4286 21.5308 22.4692 20.5714 21.2857 20.5714ZM5.21427 19.1428H14.5C14.6973 19.1428 14.8571 18.983 14.8571 18.7857V18.0714C14.8571 17.8741 14.6973 17.7143 14.5 17.7143H5.21427C5.01695 17.7143 4.85713 17.8741 4.85713 18.0714V18.7857C4.85713 18.983 5.01695 19.1428 5.21427 19.1428Z" fill="#EEB45E"/>
</svg>
