<svg width="32" height="32" viewBox="0 0 32 32" fill="none" xmlns="http://www.w3.org/2000/svg">
<path d="M10 20H10.75V21C10.75 21.5525 11.1975 22 11.75 22H14.25C14.8025 22 15.25 21.5525 15.25 21V20H16C17.1044 20 18 19.1044 18 18V4C18 2.89562 17.1044 2 16 2V1C16 0.4475 15.5525 0 15 0H11C10.4475 0 10 0.4475 10 1V2C8.89562 2 8 2.89562 8 4V18C8 19.1044 8.89562 20 10 20ZM29 28H28.9194C30.8275 25.8744 32 23.075 32 20C32 13.3825 26.6175 8 20 8V12C24.4113 12 28 15.5887 28 20C28 24.4113 24.4113 28 20 28H3C1.34312 28 0 29.3431 0 31C0 31.5525 0.4475 32 1 32H31C31.5525 32 32 31.5525 32 31C32 29.3431 30.6569 28 29 28ZM6.5 26H19.5C19.7763 26 20 25.7763 20 25.5V24.5C20 24.2237 19.7763 24 19.5 24H6.5C6.22375 24 6 24.2237 6 24.5V25.5C6 25.7763 6.22375 26 6.5 26Z" fill="#EEB45E"/>
</svg>
