<svg width="20" height="20" viewBox="0 0 20 20" fill="none" xmlns="http://www.w3.org/2000/svg">
<path d="M6.57146 12.2857H7.00004V12.8571C7.00004 13.1729 7.25575 13.4286 7.57146 13.4286H9.00004C9.31575 13.4286 9.57146 13.1729 9.57146 12.8571V12.2857H10C10.6311 12.2857 11.1429 11.7739 11.1429 11.1429V3.14286C11.1429 2.51179 10.6311 2 10 2V1.42858C10 1.11286 9.74432 0.857147 9.42861 0.857147H7.14289C6.82718 0.857147 6.57146 1.11286 6.57146 1.42858V2C5.94039 2 5.42861 2.51179 5.42861 3.14286V11.1429C5.42861 11.7739 5.94039 12.2857 6.57146 12.2857ZM17.4286 16.8571H17.3825C18.4729 15.6425 19.1429 14.0429 19.1429 12.2857C19.1429 8.50429 16.0672 5.42858 12.2857 5.42858V7.71429C14.8065 7.71429 16.8572 9.765 16.8572 12.2857C16.8572 14.8064 14.8065 16.8571 12.2857 16.8571H2.57146C1.62468 16.8571 0.857178 17.6246 0.857178 18.5714C0.857178 18.8871 1.11289 19.1429 1.42861 19.1429H18.5715C18.8872 19.1429 19.1429 18.8871 19.1429 18.5714C19.1429 17.6246 18.3754 16.8571 17.4286 16.8571ZM4.57146 15.7143H12C12.1579 15.7143 12.2857 15.5864 12.2857 15.4286V14.8571C12.2857 14.6993 12.1579 14.5714 12 14.5714H4.57146C4.41361 14.5714 4.28575 14.6993 4.28575 14.8571V15.4286C4.28575 15.5864 4.41361 15.7143 4.57146 15.7143Z" fill="#EEB45E"/>
</svg>
