<svg width="32" height="32" viewBox="0 0 32 32" fill="none" xmlns="http://www.w3.org/2000/svg">
<path d="M3.2 16C3.2007 13.2029 4.11759 10.483 5.81044 8.2564C7.50328 6.02976 9.87888 4.41891 12.5739 3.67023C15.2689 2.92155 18.135 3.07626 20.7338 4.1107C23.3326 5.14513 25.521 7.00235 26.9643 9.39828C28.4076 11.7942 29.0264 14.597 28.726 17.3779C28.4256 20.1588 27.2225 22.7647 25.3008 24.7972C23.3792 26.8296 20.8446 28.1767 18.0849 28.6322C15.3252 29.0878 12.4922 28.6269 10.0192 27.32L4.1952 28.776C4.06116 28.8097 3.92068 28.8081 3.78745 28.7713C3.65422 28.7346 3.53278 28.6639 3.43497 28.5663C3.33716 28.4686 3.26632 28.3473 3.22935 28.2141C3.19238 28.081 3.19053 27.9405 3.224 27.8064L4.68 21.9808C3.70511 20.1382 3.19694 18.0846 3.2 16ZM14.8 11.6912C15.0448 11.4144 15.424 11.2 16 11.2C16.576 11.2 16.9552 11.4144 17.2 11.6912C17.4576 11.9856 17.6 12.392 17.6 12.8C17.6 13.3072 17.4864 13.6368 17.3344 13.896C17.1728 14.1744 16.9568 14.3984 16.6576 14.712L16.6224 14.7504C16.32 15.0656 15.9488 15.4608 15.6656 16C15.3776 16.5536 15.2 17.2176 15.2 18.0688C15.2 18.281 15.2843 18.4844 15.4343 18.6345C15.5843 18.7845 15.7878 18.8688 16 18.8688C16.2122 18.8688 16.4157 18.7845 16.5657 18.6345C16.7157 18.4844 16.8 18.281 16.8 18.0688C16.8 17.4544 16.9232 17.048 17.0832 16.7424C17.2512 16.4224 17.48 16.168 17.7776 15.856L17.8448 15.7872C18.1168 15.504 18.456 15.1504 18.7168 14.7024C19.0144 14.1904 19.2 13.5824 19.2 12.8C19.2 12.0432 18.9424 11.248 18.4 10.6336C17.8448 10.0032 17.024 9.59999 16 9.59999C14.976 9.59999 14.1552 10.0032 13.6 10.6336C13.056 11.2496 12.8 12.0416 12.8 12.8C12.8 13.0122 12.8843 13.2156 13.0343 13.3657C13.1843 13.5157 13.3878 13.6 13.6 13.6C13.8122 13.6 14.0157 13.5157 14.1657 13.3657C14.3157 13.2156 14.4 13.0122 14.4 12.8C14.4 12.392 14.5424 11.984 14.8 11.6912ZM17.12 21.6208C17.12 21.3237 17.002 21.0389 16.792 20.8288C16.5819 20.6188 16.297 20.5008 16 20.5008C15.703 20.5008 15.4181 20.6188 15.208 20.8288C14.998 21.0389 14.88 21.3237 14.88 21.6208C14.88 21.9178 14.998 22.2027 15.208 22.4128C15.4181 22.6228 15.703 22.7408 16 22.7408C16.297 22.7408 16.5819 22.6228 16.792 22.4128C17.002 22.2027 17.12 21.9178 17.12 21.6208Z" fill="#60A4C1"/>
</svg>
