<svg width="16" height="16" viewBox="0 0 16 16" fill="none" xmlns="http://www.w3.org/2000/svg">
<path d="M14.3333 5.65867V11.25C14.3333 12.2167 13.55 13 12.5833 13H3.41663C2.9525 13 2.50738 12.8156 2.17919 12.4874C1.851 12.1592 1.66663 11.7141 1.66663 11.25V5.65867L7.79929 9.032C7.92429 9.10067 8.07596 9.10067 8.20063 9.032L14.3333 5.65833V5.65867ZM12.5833 3C13.0401 3.00004 13.4788 3.17872 13.8057 3.49786C14.1326 3.817 14.3217 4.2513 14.3326 4.708L7.99996 8.19133L1.66729 4.70767L1.66796 4.67767C1.68663 4.22642 1.87903 3.79986 2.20493 3.48719C2.53083 3.17452 2.96499 2.99996 3.41663 3H12.5833Z" fill="white"/>
</svg>
