<svg width="20" height="20" viewBox="0 0 20 20" fill="none" xmlns="http://www.w3.org/2000/svg">
<path d="M6.98694 2.06598C7.42452 1.93404 7.89409 1.95596 8.31748 2.12808C8.74087 2.30021 9.09254 2.61215 9.31394 3.01198L9.38894 3.16098L10.0499 4.63198C10.2508 5.07846 10.3161 5.57416 10.2375 6.05741C10.1589 6.54067 9.93997 6.99016 9.60794 7.34998L9.47594 7.48198L8.43194 8.45498C8.24394 8.63298 8.38494 9.32198 9.06594 10.5C9.67694 11.56 10.1759 12.055 10.4199 12.082H10.4629L10.5159 12.072L12.5659 11.445C12.8414 11.3605 13.1355 11.3571 13.4128 11.4353C13.6902 11.5136 13.9392 11.67 14.1299 11.886L14.2219 12.001L15.5779 13.881C15.844 14.2494 15.9767 14.6974 15.9542 15.1512C15.9316 15.6051 15.7552 16.0378 15.4539 16.378L15.3319 16.504L14.7889 17.018C14.3022 17.4789 13.6934 17.7904 13.0348 17.9153C12.3763 18.0403 11.6957 17.9736 11.0739 17.723C9.13894 16.943 7.38094 15.161 5.78394 12.395C4.18394 9.62198 3.51894 7.20498 3.81594 5.13498C3.9059 4.50913 4.16372 3.91934 4.562 3.42827C4.96028 2.9372 5.48414 2.56319 6.07794 2.34598L6.27094 2.28198L6.98694 2.06598V2.06598Z" fill="white"/>
</svg>
