<svg width="22" height="22" viewBox="0 0 22 22" fill="none" xmlns="http://www.w3.org/2000/svg">
<path d="M2.77137 11C2.77182 9.20189 3.36125 7.45341 4.44951 6.02199C5.53776 4.59058 7.06494 3.55503 8.79745 3.07374C10.53 2.59245 12.3724 2.69191 14.0431 3.3569C15.7137 4.02189 17.1206 5.21582 18.0484 6.75606C18.9762 8.2963 19.374 10.0981 19.1809 11.8858C18.9878 13.6735 18.2144 15.3488 16.9791 16.6554C15.7437 17.9619 14.1143 18.8279 12.3402 19.1208C10.5661 19.4136 8.74491 19.1173 7.15514 18.2772L3.41114 19.2132C3.32497 19.2348 3.23467 19.2338 3.14902 19.2102C3.06337 19.1865 2.9853 19.1411 2.92242 19.0783C2.85955 19.0156 2.814 18.9376 2.79024 18.852C2.76647 18.7664 2.76528 18.676 2.7868 18.5898L3.7228 14.8448C3.09609 13.6603 2.7694 12.3401 2.77137 11V11ZM10.2285 8.23007C10.3859 8.05213 10.6297 7.9143 10.9999 7.9143C11.3702 7.9143 11.614 8.05213 11.7714 8.23007C11.937 8.41933 12.0285 8.68059 12.0285 8.94287C12.0285 9.26893 11.9555 9.48082 11.8578 9.64745C11.7539 9.82642 11.615 9.97042 11.4227 10.172L11.4001 10.1967C11.2057 10.3993 10.967 10.6534 10.785 11C10.5998 11.3559 10.4857 11.7828 10.4857 12.33C10.4857 12.4664 10.5398 12.5972 10.6363 12.6936C10.7327 12.7901 10.8635 12.8442 10.9999 12.8442C11.1363 12.8442 11.2671 12.7901 11.3636 12.6936C11.46 12.5972 11.5142 12.4664 11.5142 12.33C11.5142 11.935 11.5934 11.6737 11.6963 11.4773C11.8043 11.2716 11.9514 11.108 12.1427 10.9074L12.1859 10.8632C12.3607 10.6812 12.5788 10.4538 12.7465 10.1658C12.9378 9.8367 13.0571 9.44585 13.0571 8.94287C13.0571 8.45636 12.8915 7.94516 12.5428 7.55019C12.1859 7.14493 11.6582 6.88573 10.9999 6.88573C10.3417 6.88573 9.814 7.14493 9.45708 7.55019C9.10737 7.94619 8.9428 8.45533 8.9428 8.94287C8.9428 9.07927 8.99698 9.21008 9.09343 9.30653C9.18988 9.40298 9.32069 9.45716 9.45708 9.45716C9.59348 9.45716 9.72429 9.40298 9.82074 9.30653C9.91719 9.21008 9.97137 9.07927 9.97137 8.94287C9.97137 8.68059 10.0629 8.4183 10.2285 8.23007ZM11.7199 14.6134C11.7199 14.4224 11.6441 14.2393 11.5091 14.1043C11.374 13.9692 11.1909 13.8934 10.9999 13.8934C10.809 13.8934 10.6259 13.9692 10.4908 14.1043C10.3558 14.2393 10.2799 14.4224 10.2799 14.6134C10.2799 14.8043 10.3558 14.9875 10.4908 15.1225C10.6259 15.2575 10.809 15.3334 10.9999 15.3334C11.1909 15.3334 11.374 15.2575 11.5091 15.1225C11.6441 14.9875 11.7199 14.8043 11.7199 14.6134Z" fill="#60A4C1"/>
</svg>
