<svg width="22" height="24" viewBox="0 0 22 24" fill="none" xmlns="http://www.w3.org/2000/svg">
<path d="M2.83827 12C2.83872 10.002 3.43218 8.05928 4.52788 6.46881C5.62359 4.87835 7.16121 3.72775 8.90558 3.19298C10.65 2.65821 12.505 2.76872 14.1871 3.5076C15.8692 4.24648 17.2856 5.57306 18.2198 7.28444C19.154 8.99583 19.5545 10.9978 19.3601 12.9842C19.1657 14.9705 18.387 16.8319 17.1432 18.2837C15.8993 19.7354 14.2589 20.6976 12.4726 21.023C10.6864 21.3484 8.85268 21.0192 7.25203 20.0857L3.48241 21.1257C3.39566 21.1497 3.30473 21.1486 3.21849 21.1223C3.13226 21.0961 3.05366 21.0456 2.99035 20.9759C2.92704 20.9061 2.88119 20.8195 2.85726 20.7243C2.83333 20.6292 2.83214 20.5289 2.8538 20.4331L3.7962 16.272C3.1652 14.9558 2.83628 13.489 2.83827 12V12ZM10.3464 8.92224C10.5049 8.72452 10.7503 8.57138 11.1231 8.57138C11.496 8.57138 11.7414 8.72452 11.8998 8.92224C12.0666 9.13252 12.1588 9.42281 12.1588 9.71424C12.1588 10.0765 12.0852 10.312 11.9868 10.4971C11.8822 10.696 11.7424 10.856 11.5488 11.08L11.526 11.1074C11.3303 11.3325 11.09 11.6148 10.9067 12C10.7203 12.3954 10.6053 12.8697 10.6053 13.4777C10.6053 13.6292 10.6599 13.7746 10.757 13.8817C10.8541 13.9889 10.9858 14.0491 11.1231 14.0491C11.2605 14.0491 11.3922 13.9889 11.4893 13.8817C11.5864 13.7746 11.6409 13.6292 11.6409 13.4777C11.6409 13.0388 11.7207 12.7485 11.8242 12.5302C11.933 12.3017 12.0811 12.12 12.2737 11.8971L12.3172 11.8479C12.4933 11.6457 12.7128 11.3931 12.8816 11.0731C13.0742 10.7074 13.1944 10.2731 13.1944 9.71424C13.1944 9.17366 13.0276 8.60566 12.6766 8.16681C12.3172 7.71652 11.7859 7.42852 11.1231 7.42852C10.4604 7.42852 9.92908 7.71652 9.56973 8.16681C9.21762 8.60681 9.05192 9.17252 9.05192 9.71424C9.05192 9.86579 9.10648 10.0111 9.20358 10.1183C9.30069 10.2255 9.4324 10.2857 9.56973 10.2857C9.70706 10.2857 9.83876 10.2255 9.93587 10.1183C10.033 10.0111 10.0875 9.86579 10.0875 9.71424C10.0875 9.42281 10.1797 9.13138 10.3464 8.92224ZM11.8481 16.0148C11.8481 15.8026 11.7717 15.5992 11.6357 15.4491C11.4998 15.2991 11.3154 15.2148 11.1231 15.2148C10.9309 15.2148 10.7465 15.2991 10.6105 15.4491C10.4746 15.5992 10.3982 15.8026 10.3982 16.0148C10.3982 16.227 10.4746 16.4305 10.6105 16.5805C10.7465 16.7305 10.9309 16.8148 11.1231 16.8148C11.3154 16.8148 11.4998 16.7305 11.6357 16.5805C11.7717 16.4305 11.8481 16.227 11.8481 16.0148Z" fill="#60A4C1"/>
</svg>
