<svg width="20" height="20" viewBox="0 0 20 20" fill="none" xmlns="http://www.w3.org/2000/svg">
<path fill-rule="evenodd" clip-rule="evenodd" d="M11.9048 3.14285V3.90476C11.9048 4.40228 12.2229 4.8259 12.6668 4.98285V5.42857H12.2858C12.1848 5.42857 12.0879 5.4687 12.0164 5.54015C11.945 5.61159 11.9048 5.70848 11.9048 5.80952V8.09523C11.9048 8.19627 11.945 8.29317 12.0164 8.36461C12.0879 8.43605 12.1848 8.47619 12.2858 8.47619H13.8096C13.9106 8.47619 14.0075 8.43605 14.079 8.36461C14.1504 8.29317 14.1906 8.19627 14.1906 8.09523V5.80952C14.1906 5.70848 14.1504 5.61159 14.079 5.54015C14.0075 5.4687 13.9106 5.42857 13.8096 5.42857H13.4287V5.04761H15.3334V9.64419H8.51818C8.50276 9.64423 8.48749 9.64122 8.47324 9.63534C8.45898 9.62945 8.44603 9.62081 8.43514 9.6099L8.29571 9.46895L8.43628 9.32914C8.56975 9.19579 8.67563 9.03745 8.74789 8.86317C8.82014 8.68889 8.85735 8.50208 8.85739 8.31341C8.85742 8.12474 8.82029 7.93791 8.7481 7.7636C8.67591 7.58929 8.57008 7.43092 8.43666 7.29752L7.75095 6.6118C7.61762 6.47833 7.45932 6.37243 7.28506 6.30013C7.11081 6.22784 6.92403 6.19058 6.73537 6.19047C6.54672 6.19037 6.35989 6.22742 6.18556 6.29951C6.01122 6.37161 5.8528 6.47734 5.71933 6.61066L5.45114 6.87885C5.19181 6.80501 4.91742 6.80215 4.65661 6.87057C4.3958 6.93899 4.15815 7.07617 3.96847 7.2678C3.68363 7.55554 3.52385 7.94407 3.52385 8.34895C3.52385 8.75383 3.68363 9.14235 3.96847 9.43009L4.2858 9.74971V13.8095H3.14294V14.5714H4.30485C4.11566 14.7568 3.98597 14.9943 3.93231 15.2537C3.87865 15.5131 3.90346 15.7825 4.00357 16.0278C4.10368 16.273 4.27455 16.4828 4.49441 16.6305C4.71426 16.7782 4.97313 16.8571 5.23799 16.8571C5.50286 16.8571 5.76172 16.7782 5.98158 16.6305C6.20143 16.4828 6.37231 16.273 6.47242 16.0278C6.57253 15.7825 6.59734 15.5131 6.54368 15.2537C6.49002 14.9943 6.36033 14.7568 6.17114 14.5714H13.829C13.6399 14.7568 13.5102 14.9943 13.4565 15.2537C13.4028 15.5131 13.4276 15.7825 13.5278 16.0278C13.6279 16.273 13.7987 16.4828 14.0186 16.6305C14.2385 16.7782 14.4973 16.8571 14.7622 16.8571C15.0271 16.8571 15.2859 16.7782 15.5058 16.6305C15.7256 16.4828 15.8965 16.273 15.9966 16.0278C16.0967 15.7825 16.1215 15.5131 16.0679 15.2537C16.0142 14.9943 15.8845 14.7568 15.6953 14.5714H16.8572V13.8095H15.3334V12.6667H15.3586C16.1868 12.6667 16.8572 11.9901 16.8572 11.1554C16.8577 10.8883 16.7875 10.6258 16.6537 10.3946C16.5199 10.1634 16.3272 9.97182 16.0953 9.83923V5.04761C16.0953 4.84554 16.0151 4.65175 15.8722 4.50887C15.7293 4.36598 15.5355 4.28571 15.3334 4.28571H13.0477C12.9467 4.28571 12.8498 4.24557 12.7783 4.17413C12.7069 4.10269 12.6668 4.00579 12.6668 3.90476V3.14285H11.9048ZM6.12428 7.28304L7.75856 8.92876L7.89761 8.79009C7.96027 8.72747 8.00998 8.65312 8.04389 8.57128C8.07781 8.48944 8.09527 8.40173 8.09527 8.31314C8.09527 8.22455 8.07781 8.13683 8.04389 8.055C8.00998 7.97316 7.96027 7.8988 7.89761 7.83619L7.2119 7.15047C7.08548 7.02391 6.91398 6.95274 6.7351 6.95259C6.55622 6.95245 6.38461 7.02335 6.25799 7.14971L6.12466 7.28304H6.12428ZM14.5715 13.8095H5.04771V10.5166L7.05723 12.5398C7.13799 12.6209 7.24694 12.6667 7.36085 12.6667H14.5715V13.8095Z" fill="#EFAD60"/>
</svg>
