<svg width="24" height="24" viewBox="0 0 24 24" fill="none" xmlns="http://www.w3.org/2000/svg">
<path fill-rule="evenodd" clip-rule="evenodd" d="M14.3809 3.42857V4.38095C14.3809 5.00286 14.7785 5.53238 15.3333 5.72857V6.28572H14.8571C14.7308 6.28572 14.6097 6.33589 14.5204 6.42519C14.4311 6.51449 14.3809 6.63561 14.3809 6.76191V9.61905C14.3809 9.74534 14.4311 9.86646 14.5204 9.95577C14.6097 10.0451 14.7308 10.0952 14.8571 10.0952H16.7619C16.8882 10.0952 17.0093 10.0451 17.0986 9.95577C17.1879 9.86646 17.2381 9.74534 17.2381 9.61905V6.76191C17.2381 6.63561 17.1879 6.51449 17.0986 6.42519C17.0093 6.33589 16.8882 6.28572 16.7619 6.28572H16.2857V5.80953H18.6666V11.5552H10.1476C10.1283 11.5553 10.1092 11.5515 10.0914 11.5442C10.0736 11.5368 10.0574 11.526 10.0438 11.5124L9.86948 11.3362L10.0452 11.1614C10.212 10.9947 10.3444 10.7968 10.4347 10.579C10.525 10.3611 10.5715 10.1276 10.5716 9.89177C10.5716 9.65593 10.5252 9.4224 10.435 9.20451C10.3447 8.98663 10.2124 8.78865 10.0457 8.62191L9.18853 7.76476C9.02187 7.59792 8.82399 7.46554 8.60618 7.37517C8.38836 7.28481 8.15488 7.23823 7.91906 7.2381C7.68325 7.23796 7.44971 7.28428 7.23179 7.3744C7.01388 7.46452 6.81585 7.59668 6.649 7.76334L6.31377 8.09857C5.98961 8.00627 5.64662 8.0027 5.32061 8.08822C4.9946 8.17374 4.69754 8.34523 4.46043 8.58476C4.10438 8.94444 3.90465 9.43009 3.90465 9.93619C3.90465 10.4423 4.10438 10.9279 4.46043 11.2876L4.8571 11.6871V16.7619H3.42853V17.7143H4.88091C4.64442 17.946 4.4823 18.2429 4.41523 18.5671C4.34816 18.8913 4.37917 19.2282 4.50431 19.5347C4.62944 19.8412 4.84304 20.1035 5.11786 20.2882C5.39267 20.4728 5.71625 20.5714 6.04734 20.5714C6.37842 20.5714 6.702 20.4728 6.97682 20.2882C7.25163 20.1035 7.46523 19.8412 7.59037 19.5347C7.71551 19.2282 7.74652 18.8913 7.67944 18.5671C7.61237 18.2429 7.45025 17.946 7.21377 17.7143H16.7861C16.5497 17.946 16.3875 18.2429 16.3205 18.5671C16.2534 18.8913 16.2844 19.2282 16.4095 19.5347C16.5347 19.8412 16.7483 20.1035 17.0231 20.2882C17.2979 20.4728 17.6215 20.5714 17.9526 20.5714C18.2837 20.5714 18.6072 20.4728 18.8821 20.2882C19.1569 20.1035 19.3705 19.8412 19.4956 19.5347C19.6207 19.2282 19.6518 18.8913 19.5847 18.5671C19.5176 18.2429 19.3555 17.946 19.119 17.7143H20.5714V16.7619H18.6666V15.3333H18.6981C19.7333 15.3333 20.5714 14.4876 20.5714 13.4443C20.572 13.1104 20.4843 12.7823 20.317 12.4933C20.1497 12.2043 19.9089 11.9648 19.619 11.799V5.80953C19.619 5.55694 19.5187 5.3147 19.3401 5.13609C19.1615 4.95748 18.9192 4.85714 18.6666 4.85714H15.8095C15.6832 4.85714 15.5621 4.80697 15.4728 4.71767C15.3835 4.62837 15.3333 4.50725 15.3333 4.38095V3.42857H14.3809ZM7.15519 8.60381L9.19805 10.661L9.37186 10.4876C9.45019 10.4093 9.51232 10.3164 9.55472 10.2141C9.59711 10.1118 9.61893 10.0022 9.61893 9.89143C9.61893 9.7807 9.59711 9.67105 9.55472 9.56875C9.51232 9.46645 9.45019 9.37351 9.37186 9.29524L8.51472 8.4381C8.3567 8.2799 8.14232 8.19093 7.91872 8.19075C7.69513 8.19057 7.48061 8.2792 7.32234 8.43714L7.15567 8.60381H7.15519ZM17.7142 16.7619H5.80948V12.6457L8.32138 15.1748C8.42234 15.2762 8.55853 15.3333 8.70091 15.3333H17.7142V16.7619Z" fill="#EFAD60"/>
</svg>
