<svg width="32" height="32" viewBox="0 0 32 32" fill="none" xmlns="http://www.w3.org/2000/svg">
<path fill-rule="evenodd" clip-rule="evenodd" d="M19.3333 4V5.33333C19.3333 6.204 19.89 6.94533 20.6667 7.22V8H20C19.8232 8 19.6536 8.07024 19.5286 8.19526C19.4036 8.32029 19.3333 8.48986 19.3333 8.66667V12.6667C19.3333 12.8435 19.4036 13.013 19.5286 13.1381C19.6536 13.2631 19.8232 13.3333 20 13.3333H22.6667C22.8435 13.3333 23.013 13.2631 23.1381 13.1381C23.2631 13.013 23.3333 12.8435 23.3333 12.6667V8.66667C23.3333 8.48986 23.2631 8.32029 23.1381 8.19526C23.013 8.07024 22.8435 8 22.6667 8H22V7.33333H25.3333V15.3773H13.4067C13.3797 15.3774 13.353 15.3721 13.328 15.3618C13.3031 15.3515 13.2804 15.3364 13.2613 15.3173L13.0173 15.0707L13.2633 14.826C13.4969 14.5926 13.6822 14.3156 13.8087 14.0106C13.9351 13.7056 14.0002 13.3786 14.0003 13.0485C14.0003 12.7183 13.9353 12.3914 13.809 12.0863C13.6827 11.7813 13.4975 11.5041 13.264 11.2707L12.064 10.0707C11.8307 9.83709 11.5536 9.65175 11.2487 9.52524C10.9438 9.39873 10.6169 9.33352 10.2867 9.33333C9.9566 9.33315 9.62966 9.39799 9.32457 9.52416C9.01949 9.65033 8.74224 9.83535 8.50867 10.0687L8.03933 10.538C7.58552 10.4088 7.10533 10.4038 6.64892 10.5235C6.1925 10.6432 5.77661 10.8833 5.44467 11.2187C4.94619 11.7222 4.66658 12.4021 4.66658 13.1107C4.66658 13.8192 4.94619 14.4991 5.44467 15.0027L6 15.562V22.6667H4V24H6.03333C5.70225 24.3244 5.47529 24.74 5.38138 25.194C5.28748 25.6479 5.33089 26.1194 5.50609 26.5486C5.68128 26.9777 5.98032 27.3449 6.36506 27.6034C6.7498 27.8619 7.20282 28 7.66633 28C8.12985 28 8.58287 27.8619 8.96761 27.6034C9.35235 27.3449 9.65138 26.9777 9.82658 26.5486C10.0018 26.1194 10.0452 25.6479 9.95128 25.194C9.85738 24.74 9.63042 24.3244 9.29933 24H22.7007C22.3696 24.3244 22.1426 24.74 22.0487 25.194C21.9548 25.6479 21.9982 26.1194 22.1734 26.5486C22.3486 26.9777 22.6477 27.3449 23.0324 27.6034C23.4171 27.8619 23.8702 28 24.3337 28C24.7972 28 25.2502 27.8619 25.6349 27.6034C26.0197 27.3449 26.3187 26.9777 26.4939 26.5486C26.6691 26.1194 26.7125 25.6479 26.6186 25.194C26.5247 24.74 26.2978 24.3244 25.9667 24H28V22.6667H25.3333V20.6667H25.3773C26.8267 20.6667 28 19.4827 28 18.022C28.0009 17.5545 27.878 17.0952 27.6438 16.6906C27.4096 16.286 27.0725 15.9507 26.6667 15.7187V7.33333C26.6667 6.97971 26.5262 6.64057 26.2761 6.39052C26.0261 6.14048 25.687 6 25.3333 6H21.3333C21.1565 6 20.987 5.92976 20.8619 5.80474C20.7369 5.67971 20.6667 5.51014 20.6667 5.33333V4H19.3333ZM9.21733 11.2453L12.0773 14.1253L12.3207 13.8827C12.4303 13.7731 12.5173 13.643 12.5767 13.4997C12.636 13.3565 12.6666 13.203 12.6666 13.048C12.6666 12.893 12.636 12.7395 12.5767 12.5963C12.5173 12.453 12.4303 12.3229 12.3207 12.2133L11.1207 11.0133C10.8994 10.7919 10.5993 10.6673 10.2863 10.667C9.97324 10.6668 9.67291 10.7909 9.45133 11.012L9.218 11.2453H9.21733ZM24 22.6667H7.33333V16.904L10.85 20.4447C10.9913 20.5867 11.182 20.6667 11.3813 20.6667H24V22.6667Z" fill="#EFAD60"/>
</svg>
