<svg width="32" height="32" viewBox="0 0 32 32" fill="none" xmlns="http://www.w3.org/2000/svg">
<path d="M12.0001 19.8893V20.6667C12.0001 22.258 12.6322 23.7841 13.7574 24.9093C14.8827 26.0345 16.4088 26.6667 18.0001 26.6667C19.5914 26.6667 21.1175 26.0345 22.2427 24.9093C23.3679 23.7841 24.0001 22.258 24.0001 20.6667V18.44C23.1101 18.1255 22.36 17.5064 21.8823 16.6923C21.4046 15.8781 21.2301 14.9213 21.3897 13.991C21.5492 13.0606 22.0326 12.2166 22.7543 11.6082C23.4759 10.9997 24.3895 10.666 25.3334 10.666C26.2774 10.666 27.1909 10.9997 27.9126 11.6082C28.6343 12.2166 29.1176 13.0606 29.2772 13.991C29.4367 14.9213 29.2622 15.8781 28.7846 16.6923C28.3069 17.5064 27.5567 18.1255 26.6667 18.44V20.6667C26.6667 22.9652 25.7537 25.1696 24.1283 26.7949C22.503 28.4202 20.2986 29.3333 18.0001 29.3333C15.7015 29.3333 13.4971 28.4202 11.8718 26.7949C10.2465 25.1696 9.33341 22.9652 9.33341 20.6667V19.8893C7.46932 19.5737 5.77717 18.6083 4.55688 17.1642C3.3366 15.7201 2.66699 13.8906 2.66675 12V5.33334C2.66675 4.62609 2.9477 3.94782 3.4478 3.44772C3.94789 2.94762 4.62617 2.66667 5.33341 2.66667H6.66675C7.02037 2.66667 7.35951 2.80715 7.60956 3.0572C7.85961 3.30724 8.00008 3.64638 8.00008 4.00001C8.00008 4.35363 7.85961 4.69277 7.60956 4.94281C7.35951 5.19286 7.02037 5.33334 6.66675 5.33334H5.33341V12C5.33341 13.4145 5.89532 14.771 6.89551 15.7712C7.89571 16.7714 9.25226 17.3333 10.6667 17.3333C12.0812 17.3333 13.4378 16.7714 14.438 15.7712C15.4382 14.771 16.0001 13.4145 16.0001 12V5.33334H14.6667C14.3131 5.33334 13.974 5.19286 13.7239 4.94281C13.4739 4.69277 13.3334 4.35363 13.3334 4.00001C13.3334 3.64638 13.4739 3.30724 13.7239 3.0572C13.974 2.80715 14.3131 2.66667 14.6667 2.66667H16.0001C16.7073 2.66667 17.3856 2.94762 17.8857 3.44772C18.3858 3.94782 18.6667 4.62609 18.6667 5.33334V12C18.6665 13.8906 17.9969 15.7201 16.7766 17.1642C15.5563 18.6083 13.8642 19.5737 12.0001 19.8893ZM25.3334 16C25.687 16 26.0262 15.8595 26.2762 15.6095C26.5263 15.3594 26.6667 15.0203 26.6667 14.6667C26.6667 14.3131 26.5263 13.9739 26.2762 13.7239C26.0262 13.4738 25.687 13.3333 25.3334 13.3333C24.9798 13.3333 24.6407 13.4738 24.3906 13.7239C24.1406 13.9739 24.0001 14.3131 24.0001 14.6667C24.0001 15.0203 24.1406 15.3594 24.3906 15.6095C24.6407 15.8595 24.9798 16 25.3334 16Z" fill="#8C8ECA"/>
</svg>
