<svg width="20" height="20" viewBox="0 0 20 20" fill="none" xmlns="http://www.w3.org/2000/svg">
<path d="M7.71431 12.2225V12.6667C7.71431 13.576 8.07554 14.448 8.71852 15.091C9.3615 15.734 10.2336 16.0952 11.1429 16.0952C12.0522 16.0952 12.9243 15.734 13.5673 15.091C14.2102 14.448 14.5715 13.576 14.5715 12.6667V11.3943C14.0629 11.2145 13.6342 10.8608 13.3613 10.3956C13.0883 9.93035 12.9886 9.3836 13.0798 8.85197C13.171 8.32034 13.4472 7.83806 13.8596 7.49038C14.2719 7.1427 14.794 6.952 15.3334 6.952C15.8728 6.952 16.3948 7.1427 16.8072 7.49038C17.2196 7.83806 17.4958 8.32034 17.5869 8.85197C17.6781 9.3836 17.5784 9.93035 17.3054 10.3956C17.0325 10.8608 16.6038 11.2145 16.0953 11.3943V12.6667C16.0953 13.9801 15.5735 15.2398 14.6447 16.1685C13.716 17.0973 12.4563 17.619 11.1429 17.619C9.82943 17.619 8.56978 17.0973 7.64102 16.1685C6.71227 15.2398 6.19051 13.9801 6.19051 12.6667V12.2225C5.12531 12.0421 4.15836 11.4904 3.46106 10.6653C2.76375 9.84006 2.38112 8.79464 2.38098 7.71428V3.90476C2.38098 3.50062 2.54153 3.11303 2.82729 2.82726C3.11306 2.54149 3.50065 2.38095 3.90479 2.38095H4.6667C4.86877 2.38095 5.06256 2.46122 5.20544 2.6041C5.34833 2.74699 5.4286 2.94078 5.4286 3.14285C5.4286 3.34492 5.34833 3.53872 5.20544 3.6816C5.06256 3.82448 4.86877 3.90476 4.6667 3.90476H3.90479V7.71428C3.90479 8.52256 4.22588 9.29773 4.79742 9.86927C5.36896 10.4408 6.14413 10.7619 6.95241 10.7619C7.76069 10.7619 8.53586 10.4408 9.1074 9.86927C9.67894 9.29773 10 8.52256 10 7.71428V3.90476H9.23812C9.03605 3.90476 8.84226 3.82448 8.69938 3.6816C8.55649 3.53872 8.47622 3.34492 8.47622 3.14285C8.47622 2.94078 8.55649 2.74699 8.69938 2.6041C8.84226 2.46122 9.03605 2.38095 9.23812 2.38095H10C10.4042 2.38095 10.7918 2.54149 11.0775 2.82726C11.3633 3.11303 11.5238 3.50062 11.5238 3.90476V7.71428C11.5237 8.79464 11.1411 9.84006 10.4438 10.6653C9.74646 11.4904 8.77951 12.0421 7.71431 12.2225ZM15.3334 10C15.5354 10 15.7292 9.91972 15.8721 9.77684C16.015 9.63395 16.0953 9.44016 16.0953 9.23809C16.0953 9.03602 16.015 8.84223 15.8721 8.69934C15.7292 8.55646 15.5354 8.47619 15.3334 8.47619C15.1313 8.47619 14.9375 8.55646 14.7946 8.69934C14.6517 8.84223 14.5715 9.03602 14.5715 9.23809C14.5715 9.44016 14.6517 9.63395 14.7946 9.77684C14.9375 9.91972 15.1313 10 15.3334 10Z" fill="#8C8ECA"/>
</svg>
