<svg width="24" height="24" viewBox="0 0 24 24" fill="none" xmlns="http://www.w3.org/2000/svg">
<path d="M18.6667 3.42859H5.33335C4.27621 3.42859 3.42859 4.27621 3.42859 5.33335V18.6667C3.42859 19.7238 4.27621 20.5714 5.33335 20.5714H18.6667C19.7238 20.5714 20.5714 19.7238 20.5714 18.6667V5.33335C20.5714 4.27621 19.7238 3.42859 18.6667 3.42859ZM16.8572 12.9524H12.9524V13.9048H16.7619C16.7619 13.9048 16.7048 16.7619 15.3334 16.7619C14.0476 16.7619 14.381 15.3048 12.9524 14.8572V16.7619C12.9524 17.2857 12.5238 17.7143 12 17.7143C11.4762 17.7143 11.0476 17.2857 11.0476 16.7619V14.8572C9.61906 15.3048 9.9524 16.7619 8.66668 16.7619C7.29526 16.7619 7.23811 13.9048 7.23811 13.9048H11.0476V12.9524H7.14287C7.09526 12.6572 7.08573 12.3334 7.04764 12H11.0476V11.0476H7.05716C7.07621 10.7334 7.1524 10.4095 7.23811 10.0953H11.0476V9.14287H7.56192C7.7143 8.80954 7.85716 8.48573 8.02859 8.19049H11.0476V7.23811C11.0476 6.7143 11.4762 6.28573 12 6.28573C12.5238 6.28573 12.9524 6.7143 12.9524 7.23811V8.19049H15.9714C16.1429 8.48573 16.2857 8.80954 16.4381 9.14287H12.9524V10.0953H16.7619C16.8572 10.4095 16.9238 10.7334 16.9429 11.0476H12.9524V12H16.9524C16.9143 12.3334 16.9048 12.6572 16.8572 12.9524V12.9524Z" fill="#719DEF"/>
</svg>
