<svg width="20" height="20" viewBox="0 0 20 20" fill="none" xmlns="http://www.w3.org/2000/svg">
<path d="M15.3334 3.14287H4.66675C3.82104 3.14287 3.14294 3.82096 3.14294 4.66668V15.3333C3.14294 16.1791 3.82104 16.8572 4.66675 16.8572H15.3334C16.1791 16.8572 16.8572 16.1791 16.8572 15.3333V4.66668C16.8572 3.82096 16.1791 3.14287 15.3334 3.14287ZM13.8858 10.7619H10.762V11.5238H13.8096C13.8096 11.5238 13.7639 13.8095 12.6668 13.8095C11.6382 13.8095 11.9048 12.6438 10.762 12.2857V13.8095C10.762 14.2286 10.4191 14.5714 10.0001 14.5714C9.58104 14.5714 9.23818 14.2286 9.23818 13.8095V12.2857C8.09532 12.6438 8.36199 13.8095 7.33342 13.8095C6.23628 13.8095 6.19056 11.5238 6.19056 11.5238H9.23818V10.7619H6.11437C6.07628 10.5257 6.06866 10.2667 6.03818 10H9.23818V9.23811H6.0458C6.06104 8.98668 6.12199 8.72763 6.19056 8.4762H9.23818V7.7143H6.44961C6.57152 7.44763 6.6858 7.18858 6.82294 6.95239H9.23818V6.19049C9.23818 5.77144 9.58104 5.42858 10.0001 5.42858C10.4191 5.42858 10.762 5.77144 10.762 6.19049V6.95239H13.1772C13.3144 7.18858 13.4287 7.44763 13.5506 7.7143H10.762V8.4762H13.8096C13.8858 8.72763 13.9391 8.98668 13.9544 9.23811H10.762V10H13.962C13.9315 10.2667 13.9239 10.5257 13.8858 10.7619V10.7619Z" fill="#719DEF"/>
</svg>
