<svg width="24" height="24" viewBox="0 0 24 24" fill="none" xmlns="http://www.w3.org/2000/svg">
<path d="M12.0425 12.7782C13.73 12.7782 14.5125 14.0593 14.6775 15.8779C14.7164 16.3132 14.6757 16.9475 14.62 17.6825C14.4303 20.124 14.2121 23.124 15.8378 23.124C17.2125 23.124 17.9189 20.4861 18.3264 17.4797C18.72 14.5032 18.3032 13.0222 18.5078 11.7007C18.8986 9.19681 21.0846 6.95181 20.4093 3.75896C20.0353 1.98788 19.0603 1.15467 18.0939 0.80467C15.8686 -0.00532982 14.4314 1.55538 12.0418 1.55538C9.65213 1.55538 8.21534 -0.00532982 5.98891 0.80467C5.02356 1.15467 4.04856 1.98788 3.67391 3.75896C2.99927 6.95146 5.18427 9.19681 5.57606 11.7007C5.7807 13.0222 5.36427 14.5032 5.75784 17.4797C6.16534 20.4865 6.87177 23.124 8.24641 23.124C9.87106 23.124 9.65427 20.124 9.46427 17.6825C9.40856 16.9479 9.36748 16.3132 9.40641 15.8779C9.5707 14.0593 10.3643 12.7782 12.0418 12.7782H12.0425Z" fill="#78C4C9"/>
</svg>
