<svg width="32" height="32" viewBox="0 0 32 32" fill="none" xmlns="http://www.w3.org/2000/svg">
<path d="M16.0595 17.0895C18.422 17.0895 19.5175 18.883 19.7485 21.429C19.803 22.0385 19.746 22.9265 19.668 23.9555C19.4025 27.3735 19.097 31.5735 21.373 31.5735C23.2975 31.5735 24.2865 27.8805 24.857 23.6715C25.408 19.5045 24.8245 17.431 25.111 15.581C25.658 12.0755 28.7185 8.93251 27.773 4.46251C27.2495 1.98301 25.8845 0.816514 24.5315 0.326514C21.416 -0.807486 19.404 1.37751 16.0585 1.37751C12.713 1.37751 10.7015 -0.807486 7.5845 0.326514C6.233 0.816514 4.868 1.98301 4.3435 4.46251C3.399 8.93201 6.458 12.0755 7.0065 15.581C7.293 17.431 6.71 19.5045 7.261 23.6715C7.8315 27.881 8.8205 31.5735 10.745 31.5735C13.0195 31.5735 12.716 27.3735 12.45 23.9555C12.372 22.927 12.3145 22.0385 12.369 21.429C12.599 18.883 13.71 17.0895 16.0585 17.0895H16.0595Z" fill="#78C4C9"/>
</svg>
