<svg width="20" height="20" viewBox="0 0 20 20" fill="none" xmlns="http://www.w3.org/2000/svg">
<path d="M10.034 10.6226C11.384 10.6226 12.01 11.6474 12.142 13.1023C12.1732 13.4506 12.1406 13.958 12.096 14.546C11.9443 16.4991 11.7697 18.8991 13.0703 18.8991C14.17 18.8991 14.7352 16.7889 15.0612 14.3837C15.376 12.0026 15.0426 10.8177 15.2063 9.76058C15.5189 7.75743 17.2677 5.96143 16.7274 3.40715C16.4283 1.99029 15.6483 1.32372 14.8752 1.04372C13.0949 0.395718 11.9452 1.64429 10.0334 1.64429C8.12173 1.64429 6.9723 0.395718 5.19115 1.04372C4.41887 1.32372 3.63887 1.99029 3.33915 3.40715C2.79944 5.96115 4.54744 7.75743 4.86087 9.76058C5.02458 10.8177 4.69144 12.0026 5.0063 14.3837C5.3323 16.7891 5.89744 18.8991 6.99715 18.8991C8.29687 18.8991 8.12344 16.4991 7.97144 14.546C7.92687 13.9583 7.89401 13.4506 7.92516 13.1023C8.05658 11.6474 8.69144 10.6226 10.0334 10.6226H10.034Z" fill="#78C4C9"/>
</svg>
