<svg width="20" height="20" viewBox="0 0 20 20" fill="none" xmlns="http://www.w3.org/2000/svg">
<g clip-path="url(#clip0_16_290)">
<path d="M16.8572 6H16.7857C16.7277 5.84578 16.637 5.70593 16.5199 5.59004C16.4028 5.47415 16.262 5.38495 16.1072 5.32857L10.3929 3.25C10.1392 3.15714 9.86085 3.15714 9.60718 3.25L3.89289 5.32857C3.73807 5.38495 3.59727 5.47415 3.48015 5.59004C3.36302 5.70593 3.27234 5.84578 3.21432 6H3.14289C2.53726 6.00188 1.95698 6.2433 1.52873 6.67155C1.10048 7.09979 0.859062 7.68008 0.857178 8.28571L0.857178 10C0.859062 10.6056 1.10048 11.1859 1.52873 11.6142C1.95698 12.0424 2.53726 12.2838 3.14289 12.2857H3.51432C3.98575 13.3143 4.89289 14.2143 6.20004 14.9429C7.70718 15.7786 9.31432 16.1571 9.76432 16.25L10 16.2714L10.2357 16.25C10.6857 16.1571 12.2929 15.7786 13.8 14.9429C15.1072 14.2143 16.0143 13.3143 16.4858 12.2857H16.8572C17.4628 12.2838 18.0431 12.0424 18.4713 11.6142C18.8996 11.1859 19.141 10.6056 19.1429 10V8.28571C19.141 7.68008 18.8996 7.09979 18.4713 6.67155C18.0431 6.2433 17.4628 6.00188 16.8572 6V6ZM3.14289 11.1429C2.83979 11.1429 2.5491 11.0224 2.33477 10.8081C2.12044 10.5938 2.00003 10.3031 2.00003 10V8.28571C2.00003 7.98261 2.12044 7.69192 2.33477 7.47759C2.5491 7.26326 2.83979 7.14285 3.14289 7.14285V10.5714C3.14269 10.7627 3.15702 10.9537 3.18575 11.1429H3.14289ZM12.8572 11.7143H7.14289C6.99134 11.7143 6.846 11.6541 6.73883 11.5469C6.63167 11.4398 6.57146 11.2944 6.57146 11.1429C6.57146 10.9913 6.63167 10.846 6.73883 10.7388C6.846 10.6316 6.99134 10.5714 7.14289 10.5714H12.8572C13.0087 10.5714 13.1541 10.6316 13.2612 10.7388C13.3684 10.846 13.4286 10.9913 13.4286 11.1429C13.4286 11.2944 13.3684 11.4398 13.2612 11.5469C13.1541 11.6541 13.0087 11.7143 12.8572 11.7143ZM12.8572 9.42857H7.14289C6.99134 9.42857 6.846 9.36836 6.73883 9.2612C6.63167 9.15404 6.57146 9.00869 6.57146 8.85714C6.57146 8.70559 6.63167 8.56024 6.73883 8.45308C6.846 8.34591 6.99134 8.28571 7.14289 8.28571H12.8572C13.0087 8.28571 13.1541 8.34591 13.2612 8.45308C13.3684 8.56024 13.4286 8.70559 13.4286 8.85714C13.4286 9.00869 13.3684 9.15404 13.2612 9.2612C13.1541 9.36836 13.0087 9.42857 12.8572 9.42857ZM18 10C18 10.3031 17.8796 10.5938 17.6653 10.8081C17.451 11.0224 17.1603 11.1429 16.8572 11.1429H16.8143C16.843 10.9537 16.8574 10.7627 16.8572 10.5714V7.14285C17.1603 7.14285 17.451 7.26326 17.6653 7.47759C17.8796 7.69192 18 7.98261 18 8.28571V10Z" fill="#60A4C1"/>
</g>
<defs>
<clipPath id="clip0_16_290">
<rect width="18.2857" height="18.2857" fill="white" transform="translate(0.857178 0.85714)"/>
</clipPath>
</defs>
</svg>
