<svg width="24" height="24" viewBox="0 0 24 24" fill="none" xmlns="http://www.w3.org/2000/svg">
<g clip-path="url(#clip0_8_161)">
<path d="M20.5714 6.99996H20.4821C20.4096 6.80719 20.2962 6.63238 20.1498 6.48751C20.0034 6.34265 19.8274 6.23115 19.6339 6.16067L12.4911 3.56246C12.174 3.44638 11.826 3.44638 11.5089 3.56246L4.36605 6.16067C4.17253 6.23115 3.99653 6.34265 3.85012 6.48751C3.70372 6.63238 3.59036 6.80719 3.51784 6.99996H3.42855C2.67152 7.00231 1.94616 7.30409 1.41085 7.8394C0.875542 8.37471 0.573766 9.10006 0.571411 9.8571L0.571411 12C0.573766 12.757 0.875542 13.4824 1.41085 14.0177C1.94616 14.553 2.67152 14.8547 3.42855 14.8571H3.89284C4.48213 16.1428 5.61605 17.2678 7.24998 18.1785C9.13391 19.2232 11.1428 19.6964 11.7053 19.8125L12 19.8392L12.2946 19.8125C12.8571 19.6964 14.8661 19.2232 16.75 18.1785C18.3839 17.2678 19.5178 16.1428 20.1071 14.8571H20.5714C21.3284 14.8547 22.0538 14.553 22.5891 14.0177C23.1244 13.4824 23.4262 12.757 23.4286 12V9.8571C23.4262 9.10006 23.1244 8.37471 22.5891 7.8394C22.0538 7.30409 21.3284 7.00231 20.5714 6.99996V6.99996ZM3.42855 13.4285C3.04967 13.4285 2.68631 13.278 2.4184 13.0101C2.15049 12.7422 1.99998 12.3788 1.99998 12V9.8571C1.99998 9.47822 2.15049 9.11486 2.4184 8.84695C2.68631 8.57904 3.04967 8.42853 3.42855 8.42853V12.7142C3.42831 12.9534 3.44621 13.1921 3.48213 13.4285H3.42855ZM15.5714 14.1428H8.42855C8.23911 14.1428 8.05743 14.0676 7.92348 13.9336C7.78952 13.7997 7.71427 13.618 7.71427 13.4285C7.71427 13.2391 7.78952 13.0574 7.92348 12.9235C8.05743 12.7895 8.23911 12.7142 8.42855 12.7142H15.5714C15.7609 12.7142 15.9425 12.7895 16.0765 12.9235C16.2104 13.0574 16.2857 13.2391 16.2857 13.4285C16.2857 13.618 16.2104 13.7997 16.0765 13.9336C15.9425 14.0676 15.7609 14.1428 15.5714 14.1428ZM15.5714 11.2857H8.42855C8.23911 11.2857 8.05743 11.2104 7.92348 11.0765C7.78952 10.9425 7.71427 10.7608 7.71427 10.5714C7.71427 10.3819 7.78952 10.2003 7.92348 10.0663C8.05743 9.93236 8.23911 9.8571 8.42855 9.8571H15.5714C15.7609 9.8571 15.9425 9.93236 16.0765 10.0663C16.2104 10.2003 16.2857 10.3819 16.2857 10.5714C16.2857 10.7608 16.2104 10.9425 16.0765 11.0765C15.9425 11.2104 15.7609 11.2857 15.5714 11.2857ZM22 12C22 12.3788 21.8495 12.7422 21.5816 13.0101C21.3137 13.278 20.9503 13.4285 20.5714 13.4285H20.5178C20.5538 13.1921 20.5717 12.9534 20.5714 12.7142V8.42853C20.9503 8.42853 21.3137 8.57904 21.5816 8.84695C21.8495 9.11486 22 9.47822 22 9.8571V12Z" fill="#60A4C1"/>
</g>
<defs>
<clipPath id="clip0_8_161">
<rect width="22.8571" height="22.8571" fill="white" transform="translate(0.571411 0.571411)"/>
</clipPath>
</defs>
</svg>
