<svg width="16" height="16" viewBox="0 0 16 16" fill="none" xmlns="http://www.w3.org/2000/svg">
<path d="M8.00623 1C6.54804 1.00165 5.15006 1.58165 4.11897 2.61274C3.08787 3.64383 2.50788 5.04182 2.50623 6.5C2.50623 11.2062 7.50623 14.7625 7.71873 14.9125C7.80389 14.9692 7.90392 14.9995 8.00623 14.9995C8.10854 14.9995 8.20856 14.9692 8.29373 14.9125C8.50623 14.7625 13.5062 11.2062 13.5062 6.5C13.5046 5.04182 12.9246 3.64383 11.8935 2.61274C10.8624 1.58165 9.46441 1.00165 8.00623 1V1ZM8.00623 4.5C8.40179 4.5 8.78847 4.6173 9.11737 4.83706C9.44627 5.05682 9.70261 5.36918 9.85399 5.73463C10.0054 6.10008 10.045 6.50222 9.9678 6.89018C9.89063 7.27814 9.70015 7.63451 9.42044 7.91421C9.14074 8.19392 8.78437 8.3844 8.39641 8.46157C8.00845 8.53874 7.60631 8.49913 7.24086 8.34776C6.87541 8.19638 6.56305 7.94004 6.34329 7.61114C6.12352 7.28224 6.00623 6.89556 6.00623 6.5C6.00623 5.96957 6.21694 5.46086 6.59201 5.08579C6.96709 4.71071 7.47579 4.5 8.00623 4.5V4.5Z" fill="white"/>
</svg>
