<svg width="24" height="24" viewBox="0 0 24 24" fill="none" xmlns="http://www.w3.org/2000/svg">
<path d="M12.0093 1.5C9.822 1.50248 7.72503 2.37247 6.17839 3.91911C4.63175 5.46575 3.76176 7.56273 3.75928 9.75C3.75928 16.8094 11.2593 22.1437 11.578 22.3687C11.7058 22.4538 11.8558 22.4992 12.0093 22.4992C12.1627 22.4992 12.3128 22.4538 12.4405 22.3687C12.7593 22.1437 20.2593 16.8094 20.2593 9.75C20.2568 7.56273 19.3868 5.46575 17.8402 3.91911C16.2935 2.37247 14.1966 1.50248 12.0093 1.5V1.5ZM12.0093 6.75C12.6026 6.75 13.1826 6.92595 13.676 7.25559C14.1693 7.58524 14.5539 8.05377 14.7809 8.60195C15.008 9.15013 15.0674 9.75333 14.9516 10.3353C14.8359 10.9172 14.5502 11.4518 14.1306 11.8713C13.711 12.2909 13.1765 12.5766 12.5945 12.6924C12.0126 12.8081 11.4094 12.7487 10.8612 12.5216C10.313 12.2946 9.84451 11.9101 9.51487 11.4167C9.18522 10.9234 9.00928 10.3433 9.00928 9.75C9.00928 8.95435 9.32535 8.19129 9.88796 7.62868C10.4506 7.06607 11.2136 6.75 12.0093 6.75V6.75Z" fill="white"/>
</svg>
