<svg width="20" height="20" viewBox="0 0 20 20" fill="none" xmlns="http://www.w3.org/2000/svg">
<path d="M6.9524 8.736V10.4076C6.54838 10.6417 6.20356 10.9656 5.94459 11.3541C5.68562 11.7427 5.51942 12.1856 5.45883 12.6486C5.39824 13.1116 5.44488 13.5823 5.59514 14.0244C5.74541 14.4665 5.99529 14.8682 6.32547 15.1984C6.65566 15.5285 7.05731 15.7784 7.49943 15.9287C7.94154 16.079 8.41227 16.1256 8.87528 16.065C9.33828 16.0044 9.78116 15.8382 10.1697 15.5792C10.5583 15.3203 10.8821 14.9755 11.1162 14.5714H12.7871C12.4265 15.587 11.7188 16.4425 10.7889 16.9872C9.85902 17.5318 8.76665 17.7306 7.70451 17.5483C6.64237 17.3661 5.67871 16.8147 4.98352 15.9912C4.28834 15.1678 3.90629 14.1253 3.90479 13.0476C3.90478 12.1021 4.19783 11.1798 4.74361 10.4076C5.28938 9.6355 6.06105 9.0515 6.9524 8.736V8.736ZM10 13.8095C9.39381 13.8095 8.81243 13.5687 8.38378 13.1401C7.95512 12.7114 7.71431 12.13 7.71431 11.5238V8.47619C7.71431 7.86998 7.95512 7.2886 8.38378 6.85995C8.81243 6.43129 9.39381 6.19047 10 6.19047C10.6062 6.19047 11.1876 6.43129 11.6163 6.85995C12.0449 7.2886 12.2857 7.86998 12.2857 8.47619V12.2857H13.3783C13.6206 12.2858 13.8593 12.3436 14.0748 12.4543C14.2902 12.5651 14.4762 12.7257 14.6172 12.9227L14.685 13.0255L16.7482 16.4655L15.4423 17.2488L13.3775 13.8095H10ZM10 2.38095C10.5052 2.38095 10.9897 2.58163 11.3469 2.93884C11.7041 3.29605 11.9048 3.78054 11.9048 4.28571C11.9048 4.79089 11.7041 5.27537 11.3469 5.63258C10.9897 5.9898 10.5052 6.19047 10 6.19047C9.49485 6.19047 9.01037 5.9898 8.65315 5.63258C8.29594 5.27537 8.09526 4.79089 8.09526 4.28571C8.09526 3.78054 8.29594 3.29605 8.65315 2.93884C9.01037 2.58163 9.49485 2.38095 10 2.38095V2.38095Z" fill="#5BB087"/>
</svg>
