<svg width="24" height="24" viewBox="0 0 24 24" fill="none" xmlns="http://www.w3.org/2000/svg">
<path d="M8.19051 10.42V12.5095C7.68547 12.8022 7.25445 13.207 6.93073 13.6926C6.60702 14.1783 6.39927 14.7319 6.32353 15.3107C6.2478 15.8895 6.3061 16.4779 6.49393 17.0305C6.68177 17.5832 6.99411 18.0852 7.40684 18.498C7.81957 18.9107 8.32164 19.223 8.87428 19.4109C9.42692 19.5987 10.0153 19.657 10.5941 19.5813C11.1728 19.5055 11.7265 19.2978 12.2121 18.9741C12.6978 18.6503 13.1026 18.2193 13.3953 17.7143H15.4838C15.0331 18.9837 14.1485 20.0531 12.9861 20.734C11.8238 21.4148 10.4583 21.6632 9.13064 21.4354C7.80297 21.2077 6.59839 20.5183 5.7294 19.489C4.86042 18.4597 4.38286 17.1566 4.38098 15.8095C4.38098 14.6276 4.74729 13.4747 5.42951 12.5095C6.11172 11.5444 7.07631 10.8144 8.19051 10.42V10.42ZM12 16.7619C11.2423 16.7619 10.5155 16.4609 9.97972 15.9251C9.44391 15.3893 9.14289 14.6625 9.14289 13.9048V10.0952C9.14289 9.33748 9.44391 8.61076 9.97972 8.07494C10.5155 7.53912 11.2423 7.2381 12 7.2381C12.7578 7.2381 13.4845 7.53912 14.0203 8.07494C14.5562 8.61076 14.8572 9.33748 14.8572 10.0952V14.8571H16.2229C16.5257 14.8572 16.8242 14.9295 17.0935 15.0679C17.3628 15.2064 17.5952 15.4071 17.7715 15.6533L17.8562 15.7819L20.4353 20.0819L18.8029 21.061L16.2219 16.7619H12ZM12 2.4762C12.6315 2.4762 13.2371 2.72705 13.6836 3.17356C14.1301 3.62008 14.381 4.22568 14.381 4.85715C14.381 5.48862 14.1301 6.09422 13.6836 6.54074C13.2371 6.98725 12.6315 7.2381 12 7.2381C11.3686 7.2381 10.763 6.98725 10.3164 6.54074C9.86993 6.09422 9.61908 5.48862 9.61908 4.85715C9.61908 4.22568 9.86993 3.62008 10.3164 3.17356C10.763 2.72705 11.3686 2.4762 12 2.4762V2.4762Z" fill="#5BB087"/>
</svg>
