<svg width="32" height="32" viewBox="0 0 32 32" fill="none" xmlns="http://www.w3.org/2000/svg">
<path d="M10.6667 13.788V16.7133C9.95963 17.123 9.3562 17.6897 8.903 18.3697C8.4498 19.0497 8.15895 19.8247 8.05292 20.635C7.94688 21.4452 8.0285 22.269 8.29147 23.0427C8.55444 23.8164 8.99172 24.5193 9.56954 25.0971C10.1474 25.6749 10.8503 26.1122 11.624 26.3752C12.3977 26.6382 13.2214 26.7198 14.0317 26.6138C14.842 26.5077 15.617 26.2169 16.297 25.7637C16.977 25.3105 17.5437 24.707 17.9533 24H20.8773C20.2463 25.7772 19.0079 27.2744 17.3806 28.2275C15.7532 29.1807 13.8416 29.5285 11.9829 29.2096C10.1241 28.8907 8.43771 27.9256 7.22113 26.4846C6.00456 25.0436 5.33598 23.2192 5.33334 21.3333C5.33334 19.6786 5.84618 18.0646 6.80128 16.7133C7.75638 15.3621 9.1068 14.3401 10.6667 13.788V13.788ZM16 22.6667C14.9391 22.6667 13.9217 22.2452 13.1716 21.4951C12.4214 20.7449 12 19.7275 12 18.6667V13.3333C12 12.2725 12.4214 11.255 13.1716 10.5049C13.9217 9.75475 14.9391 9.33332 16 9.33332C17.0609 9.33332 18.0783 9.75475 18.8284 10.5049C19.5786 11.255 20 12.2725 20 13.3333V20H21.912C22.336 20.0001 22.7538 20.1012 23.1308 20.2951C23.5079 20.4889 23.8333 20.7699 24.08 21.1147L24.1987 21.2947L27.8093 27.3147L25.524 28.6853L21.9107 22.6667H16ZM16 2.66666C16.8841 2.66666 17.7319 3.01785 18.357 3.64297C18.9822 4.26809 19.3333 5.11593 19.3333 5.99999C19.3333 6.88404 18.9822 7.73189 18.357 8.35701C17.7319 8.98213 16.8841 9.33332 16 9.33332C15.116 9.33332 14.2681 8.98213 13.643 8.35701C13.0179 7.73189 12.6667 6.88404 12.6667 5.99999C12.6667 5.11593 13.0179 4.26809 13.643 3.64297C14.2681 3.01785 15.116 2.66666 16 2.66666V2.66666Z" fill="#5BB087"/>
</svg>
