<svg width="22" height="18" viewBox="0 0 22 18" fill="none" xmlns="http://www.w3.org/2000/svg">
<path d="M19.2499 0C19.9947 0 20.6393 0.296889 21.1836 0.890666C21.7279 1.48444 22 2.18749 22 2.99997C22 3.81245 21.7279 4.51566 21.1836 5.10944L10.1836 17.1093C9.63927 17.7031 8.99481 18 8.25004 18C7.50512 18 6.86066 17.7031 6.31637 17.1093L0.81644 11.1094C0.272147 10.5156 0 9.81256 0 9.00008C0 8.18744 0.272147 7.48439 0.81644 6.89062C1.36073 6.29684 2.00519 5.99995 2.74996 5.99995C3.49473 5.99995 4.13934 6.29684 4.68363 6.89062L8.25004 10.7813L17.3164 0.890666C17.8607 0.296889 18.5051 0 19.2499 0Z" fill="white"/>
</svg>
